<?xml version="1.0" encoding="UTF-8" standalone="no"?>
<!DOCTYPE svg PUBLIC "-//W3C//DTD SVG 1.1//EN" "http://www.w3.org/Graphics/SVG/1.1/DTD/svg11.dtd">
<!-- Created with Vectornator (http://vectornator.io/) -->
<svg height="100%" stroke-miterlimit="10" style="fill-rule:nonzero;clip-rule:evenodd;stroke-linecap:round;stroke-linejoin:round;" version="1.1" viewBox="0 0 350 150" width="100%" xml:space="preserve" xmlns="http://www.w3.org/2000/svg" xmlns:vectornator="http://vectornator.io" xmlns:xlink="http://www.w3.org/1999/xlink">
<defs/>
<g id="Layer-1" vectornator:layerName="Layer 1">
<g opacity="1" vectornator:layerName="Group 9">
<g opacity="1" vectornator:layerName="Group 5">
<path d="M135.971 106.784C127.387 106.784 120.827 104.447 116.29 99.775C110.205 94.043 107.162 85.7847 107.162 75C107.162 63.998 110.205 55.7396 116.29 50.225C120.827 45.5525 127.387 43.2163 135.971 43.2163C144.556 43.2163 151.116 45.5525 155.653 50.225C161.711 55.7396 164.74 63.998 164.74 75C164.74 85.7847 161.711 94.043 155.653 99.775C151.116 104.447 144.556 106.784 135.971 106.784ZM147.829 90.6474C150.736 86.98 152.189 81.7642 152.189 75C152.189 68.2629 150.729 63.054 147.809 59.373C144.889 55.6921 140.943 53.8516 135.971 53.8516C131 53.8516 127.034 55.6853 124.073 59.3526C121.112 63.02 119.631 68.2358 119.631 75C119.631 81.7642 121.112 86.98 124.073 90.6474C127.034 94.3147 131 96.1484 135.971 96.1484C140.943 96.1484 144.895 94.3147 147.829 90.6474Z" fill="#268bd2" fill-rule="nonzero" opacity="1" stroke="none"/>
<path d="M193.763 96.4336C196.724 96.4336 199.129 96.1076 200.976 95.4557C204.48 94.206 206.232 91.8834 206.232 88.4877C206.232 86.5046 205.363 84.9698 203.624 83.8831C201.886 82.8237 199.156 81.8865 195.434 81.0715L189.077 79.6453C182.829 78.2327 178.51 76.6978 176.119 75.0407C172.072 72.2699 170.048 67.937 170.048 62.042C170.048 56.6633 172.004 52.1945 175.916 48.6358C179.827 45.0772 185.573 43.2978 193.152 43.2978C199.482 43.2978 204.881 44.9753 209.35 48.3302C213.818 51.6852 216.161 56.5546 216.379 62.9385L204.317 62.9385C204.1 59.3255 202.524 56.7583 199.59 55.2371C197.634 54.2319 195.203 53.7294 192.296 53.7294C189.064 53.7294 186.483 54.3814 184.554 55.6853C182.625 56.9892 181.661 58.8093 181.661 61.1456C181.661 63.2917 182.612 64.8944 184.513 65.9539C185.736 66.6602 188.344 67.4887 192.337 68.4395L202.687 70.9252C207.224 72.0118 210.647 73.4651 212.956 75.2852C216.542 78.1105 218.335 82.1989 218.335 87.5505C218.335 93.0379 216.236 97.5949 212.039 101.222C207.842 104.848 201.913 106.661 194.252 106.661C186.429 106.661 180.276 104.875 175.793 101.303C171.311 97.7308 169.07 92.8206 169.07 86.5725L181.05 86.5725C181.43 89.3162 182.177 91.3672 183.291 92.7255C185.328 95.1976 188.819 96.4336 193.763 96.4336Z" fill="#268bd2" fill-rule="nonzero" opacity="1" stroke="none"/>
<path d="M267.651 100.631C263.169 104.733 257.437 106.784 250.455 106.784C241.816 106.784 235.025 104.013 230.081 98.471C225.137 92.9021 222.665 85.2686 222.665 75.5705C222.665 65.0846 225.476 57.0028 231.1 51.3252C235.989 46.3811 242.21 43.909 249.762 43.909C259.868 43.909 267.257 47.2232 271.929 53.8516C274.51 57.5733 275.896 61.3086 276.086 65.0574L263.535 65.0574C262.72 62.1779 261.674 60.0046 260.398 58.5377C258.116 55.9298 254.734 54.6258 250.251 54.6258C245.688 54.6258 242.088 56.4663 239.453 60.1472C236.818 63.8282 235.5 69.0372 235.5 75.7742C235.5 82.5113 236.893 87.5573 239.677 90.9122C242.462 94.2672 246 95.9446 250.292 95.9446C254.693 95.9446 258.048 94.5049 260.357 91.6253C261.634 90.0769 262.693 87.7542 263.535 84.6574L275.964 84.6574C274.877 91.2042 272.106 96.5287 267.651 100.631Z" fill="#268bd2" fill-rule="nonzero" opacity="1" stroke="none"/>
<path d="M309.062 105.113L283.187 105.113L283.187 45.05L309.062 45.05C312.784 45.1043 315.881 45.539 318.353 46.3539C322.563 47.7394 325.973 50.2794 328.58 53.9739C330.672 56.9621 332.098 60.1948 332.859 63.672C333.62 67.1492 334 70.4634 334 73.6146C334 81.6012 332.397 88.3654 329.192 93.9072C324.845 101.378 318.135 105.113 309.062 105.113ZM318.393 60.3714C316.465 57.1115 312.648 55.4816 306.943 55.4816L295.371 55.4816L295.371 94.6814L306.943 94.6814C312.865 94.6814 316.994 91.7611 319.331 85.9205C320.607 82.715 321.246 78.8983 321.246 74.4703C321.246 68.358 320.295 63.6584 318.393 60.3714Z" fill="#268bd2" fill-rule="nonzero" opacity="1" stroke="none"/>
</g>
<g opacity="1" vectornator:layerName="Group 7">
<g opacity="1" vectornator:layerName="Group 3">
<path d="M76.4361 31.3544C52.3313 31.3544 32.7905 50.8952 32.7905 75C32.7904 99.1048 52.3312 118.646 76.4361 118.646C82.4042 118.646 88.0838 117.437 93.265 115.268L91.5523 113.113C86.8686 114.973 81.7822 116.028 76.4361 116.028C53.7775 116.028 35.4172 97.6585 35.4173 75C35.4173 52.3415 53.7776 33.9715 76.4361 33.9716C81.7813 33.9716 86.8693 35.0177 91.5523 36.8775L93.2746 34.7317C88.0904 32.5603 82.4085 31.3544 76.4361 31.3544Z" fill="#268bd2" fill-rule="nonzero" opacity="1" stroke="#268bd2" stroke-linecap="butt" stroke-linejoin="round" stroke-width="2" vectornator:layerName="Curve 6"/>
<path d="M76.768 22.6272C47.8423 22.6272 24.3953 46.0742 24.3952 75C24.3952 103.926 47.8422 127.373 76.768 127.373C84.8123 127.373 92.3963 125.504 99.2066 122.263L97.5228 120.175C91.1997 123.085 84.1848 124.756 76.768 124.756C49.2886 124.756 27.0124 102.479 27.0124 75C27.0124 47.5205 49.2886 25.2444 76.768 25.2444C84.189 25.2444 91.2066 26.9116 97.5324 29.8245L99.2066 27.7269C92.3967 24.4871 84.8116 22.6272 76.768 22.6272Z" fill="#268bd2" fill-rule="nonzero" opacity="1" stroke="#268bd2" stroke-linecap="butt" stroke-linejoin="round" stroke-width="2" vectornator:layerName="Curve 5"/>
<path d="M77.1096 13.8952C43.3616 13.8952 16.0001 41.2473 16 74.9952C16 108.743 43.3616 136.105 77.1096 136.105C87.2224 136.105 96.7383 133.613 105.139 129.264L103.464 127.166C95.5396 131.178 86.5997 133.488 77.1096 133.488C44.8079 133.488 18.6268 107.297 18.6268 74.9952C18.6269 42.6936 44.808 16.5124 77.1096 16.5124C86.6012 16.5124 95.5386 18.8315 103.464 22.8437L105.139 20.7461C96.7382 16.3977 87.2226 13.8952 77.1096 13.8952Z" fill="#268bd2" fill-rule="nonzero" opacity="1" stroke="#268bd2" stroke-linecap="butt" stroke-linejoin="round" stroke-width="2" vectornator:layerName="Curve 4"/>
</g>
<path d="M68.5423 108.882C68.5423 108.882 92.3678 58.3849 92.3707 58.3776L93.6937 55.5053C88.654 56.9044 77.3982 59.5528 77.3612 59.6643C78.5655 56.3879 83.7538 41.6731 83.9716 41.675C79.1671 41.6315 74.3626 41.588 69.5582 41.5445L68.0328 48.4946L61.6537 73.6771L77.9417 69.4007L68.5423 108.882Z" fill="#268bd2" fill-rule="nonzero" opacity="1" stroke="none" vectornator:layerName="path"/>
</g>
</g>
</g>
</svg>
